<?xml version="1.0"?>
<svg xmlns="http://www.w3.org/2000/svg" xmlns:xlink="http://www.w3.org/1999/xlink" xmlns:svgjs="http://svgjs.com/svgjs" version="1.1" width="512" height="512" x="0" y="0" viewBox="0 0 512 512" style="enable-background:new 0 0 512 512" xml:space="preserve" class=""><g><g xmlns="http://www.w3.org/2000/svg"><path d="m317 0c-107.695 0-195 87.305-195 195 0 48.446 17.774 92.67 47.016 126.773l-20.876 20.876c-16.699-7.864-37.106-5.295-50.896 8.459l-97.244 97.259 63.633 63.633 97.273-97.244c13.764-13.786 16.311-34.188 8.443-50.894l20.878-20.878c34.103 29.242 78.327 47.016 126.773 47.016 107.695 0 195-87.305 195-195s-87.305-195-195-195zm105 300h-210v-15c0-57.891 47.109-105 105-105-33.091 0-60-26.909-60-60s26.909-60 60-60 60 26.909 60 60-26.909 60-60 60c57.891 0 105 47.109 105 105z" fill="#ffd73d" data-original="#000000" style=""/><path d="m317 210c-36.226 0-66.519 25.811-73.491 60h146.982c-6.972-34.189-37.265-60-73.491-60z" fill="#ffd73d" data-original="#000000" style=""/><circle cx="317" cy="120" r="30" fill="#ffd73d" data-original="#000000" style=""/></g></g></svg>
